<?xml version="1.0" encoding="UTF-8"?>
<svg id="Layer_1" data-name="Layer 1" xmlns="http://www.w3.org/2000/svg" viewBox="0 0 1080 1080">
  <defs>
    <style>
      .cls-1 {
        fill: #fff;
      }

      .cls-2 {
        fill: #8c182c;
      }
    </style>
  </defs>
  <circle class="cls-2" cx="540" cy="540" r="540"/>
  <path class="cls-1" d="M540,342.5428c-14.8204-.0558-32.8842-.6102-54.8688-2.2198,16.6999,48.3047,32.5555,97.5875,33.4955,149.3641l-28.9724-64.112c-13.5561-9.527-69.6723,35.4661-74.2456,44.9484-2.427,9.5385,19.0869,35.3457,25.4702,43.6013,1.8648,2.4115,8.2078,5.8692,3.0963,9.1001-81.1334-56.6727-61.166-130.0991-54.7285-210.4955-45.4099-17.8533-83.4422-48.756-120.5657-79.1313,29.4752,125.5478,35.5789,277.0212,158.5103,350.5883l-72.8568-27.1631c-15.9587,42.6514-38.389,82.5334-63.6114,120.2277,5.9511,12.6733,38.8749,38.066,38.8749,38.066l-30.3163-9.0699c-8.1641,45.1779-34.8855,81.9293-64.1676,115.7508,53.8174-1.1547,107.1949,9.1377,158.5263,24.404-21.0326-82.4692-28.3451-200.3676,55.8992-249.4327,44.3643,22.8345,67.3882,34.5383,90.4604,34.97,23.0721-.4317,46.096-12.1355,90.4604-34.97,84.2443,49.0651,76.9318,166.9635,55.8992,249.4327,51.3314-15.2663,104.7089-25.5586,158.5263-24.404-29.2821-33.8215-56.0036-70.5729-64.1676-115.7508l-30.3163,9.0699s32.9238-25.3926,38.8749-38.066c-25.2224-37.6944-47.6527-77.5764-63.6114-120.2277l-72.8568,27.1631c122.9314-73.5671,129.0351-225.0405,158.5103-350.5883-37.1234,30.3753-75.1557,61.278-120.5657,79.1313,6.4375,80.3963,26.405,153.8228-54.7285,210.4955-5.1115-3.2309,1.2315-6.6886,3.0963-9.1001,6.3834-8.2556,27.8972-34.0628,25.4702-43.6013-4.5733-9.4823-60.6894-54.4754-74.2456-44.9484l-28.9724,64.112c.9399-51.7766,16.7956-101.0594,33.4955-149.3641-21.9846,1.6097-40.0484,2.164-54.8688,2.2198Z"/>
  <g>
    <g>
      <path class="cls-1" d="M540,899.5783c-84.3345-19.232-148.0936-153.221-141.9352-241.066,6.5749-93.786,50.0475-131.0058,141.9352-144.3349,91.8877,13.3291,135.3603,50.5489,141.9352,144.3349,6.1584,87.845-57.6007,221.834-141.9352,241.066"/>
      <path class="cls-2" d="M540,679.4411c-39.1522.77-79.1586-7.4118-115.5627,1.9208,45.1808,12.1698,80.3717,34.0427,115.5627,34.0427,35.1909,0,76.6904-5.7542,115.5627-34.0427-36.4041-9.3326-76.4105-1.1508-115.5627-1.9208Z"/>
    </g>
    <g>
      <polygon class="cls-2" points="406.214 744.6611 451.1775 779.692 416.115 762.9602 406.214 744.6611"/>
      <polygon class="cls-2" points="432.0035 804.5081 476.8999 839.6249 441.8694 822.8261 432.0035 804.5081"/>
      <polygon class="cls-2" points="673.786 744.6611 628.8225 779.692 663.885 762.9602 673.786 744.6611"/>
      <polygon class="cls-2" points="647.9965 804.5081 603.1001 839.6249 638.1306 822.8261 647.9965 804.5081"/>
    </g>
  </g>
</svg>